{
  "accessors": [
    {
      "bufferView": 0,
      "componentType": 5126,
      "count": 4,
      "max": [
        860.1510009765625,
        860.1510009765625,
        0.0
      ],
      "min": [
        -860.1502075195313,
        -860.1502075195313,
        0.0
      ],
      "type": "VEC3"
    },
    {
      "bufferView": 1,
      "componentType": 5126,
      "count": 4,
      "max": [
        0.0,
        0.0,
        1.0
      ],
      "min": [
        0.0,
        0.0,
        1.0
      ],
      "type": "VEC3"
    },
    {
      "bufferView": 2,
      "componentType": 5126,
      "count": 4,
      "max": [
        1.0,
        2.384186643666908e-07,
        0.0,
        1.0
      ],
      "min": [
        1.0,
        2.0861632776814076e-07,
        0.0,
        1.0
      ],
      "type": "VEC4"
    },
    {
      "bufferView": 3,
      "componentType": 5126,
      "count": 4,
      "max": [
        1.0,
        1.0
      ],
      "min": [
        0.0,
        0.0
      ],
      "type": "VEC2"
    },
    {
      "bufferView": 4,
      "componentType": 5125,
      "count": 6,
      "max": [
        3
      ],
      "min": [
        0
      ],
      "type": "SCALAR"
    },
    {
      "bufferView": 5,
      "componentType": 5126,
      "count": 88,
      "max": [
        3956.693603515625,
        3956.693603515625,
        0.0
      ],
      "min": [
        -3956.69287109375,
        -3956.69287109375,
        0.0
      ],
      "type": "VEC3"
    },
    {
      "bufferView": 6,
      "componentType": 5126,
      "count": 88,
      "max": [
        0.0,
        0.0,
        1.0
      ],
      "min": [
        0.0,
        0.0,
        1.0
      ],
      "type": "VEC3"
    },
    {
      "bufferView": 7,
      "componentType": 5126,
      "count": 88,
      "max": [
        1.0,
        3.9421486519586324e-08,
        0.0,
        1.0
      ],
      "min": [
        1.0,
        -1.2671197424651837e-08,
        0.0,
        1.0
      ],
      "type": "VEC4"
    },
    {
      "bufferView": 8,
      "componentType": 5126,
      "count": 88,
      "max": [
        23.0,
        8.0
      ],
      "min": [
        -6.0,
        -1.0
      ],
      "type": "VEC2"
    },
    {
      "bufferView": 9,
      "componentType": 5125,
      "count": 228,
      "max": [
        87
      ],
      "min": [
        0
      ],
      "type": "SCALAR"
    },
    {
      "bufferView": 10,
      "componentType": 5126,
      "count": 704,
      "max": [
        3268.572998046875,
        3268.572998046875,
        0.0
      ],
      "min": [
        -3268.572265625,
        -3268.572265625,
        -19.685039520263672
      ],
      "type": "VEC3"
    },
    {
      "bufferView": 11,
      "componentType": 5126,
      "count": 704,
      "max": [
        0.223088338971138,
        0.2230883091688156,
        1.0
      ],
      "min": [
        -0.2230883091688156,
        -0.2230883240699768,
        0.9747982621192932
      ],
      "type": "VEC3"
    },
    {
      "bufferView": 12,
      "componentType": 5126,
      "count": 704,
      "max": [
        1.0,
        0.022090740501880646,
        0.22308829426765442,
        1.0
      ],
      "min": [
        0.9747982025146484,
        -0.01284179836511612,
        -0.223088338971138,
        1.0
      ],
      "type": "VEC4"
    },
    {
      "bufferView": 13,
      "componentType": 5126,
      "count": 704,
      "max": [
        4.0,
        4.0
      ],
      "min": [
        0.0,
        0.0
      ],
      "type": "VEC2"
    },
    {
      "bufferView": 14,
      "componentType": 5125,
      "count": 1248,
      "max": [
        703
      ],
      "min": [
        0
      ],
      "type": "SCALAR"
    },
    {
      "bufferView": 15,
      "componentType": 5126,
      "count": 352,
      "max": [
        3182.557861328125,
        3182.557861328125,
        -19.685039520263672
      ],
      "min": [
        -3182.55712890625,
        -3182.55712890625,
        -19.685039520263672
      ],
      "type": "VEC3"
    },
    {
      "bufferView": 16,
      "componentType": 5126,
      "count": 352,
      "max": [
        0.11225365847349167,
        0.11225368827581406,
        1.0
      ],
      "min": [
        -0.11225365102291107,
        -0.11225365102291107,
        0.987665593624115
      ],
      "type": "VEC3"
    },
    {
      "bufferView": 17,
      "componentType": 5126,
      "count": 352,
      "max": [
        1.0,
        0.012334156781435013,
        0.11225365102291107,
        1.0
      ],
      "min": [
        0.9936795830726624,
        -0.01233415026217699,
        -0.11225365102291107,
        1.0
      ],
      "type": "VEC4"
    },
    {
      "bufferView": 18,
      "componentType": 5126,
      "count": 352,
      "max": [
        4.0,
        4.0
      ],
      "min": [
        0.0,
        0.0
      ],
      "type": "VEC2"
    },
    {
      "bufferView": 19,
      "componentType": 5125,
      "count": 624,
      "max": [
        351
      ],
      "min": [
        0
      ],
      "type": "SCALAR"
    },
    {
      "bufferView": 20,
      "componentType": 5126,
      "count": 138,
      "max": [
        3927.52880859375,
        3927.529052734375,
        314.9607849121094
      ],
      "min": [
        -3927.529052734375,
        -3927.529541015625,
        9.636204719543457
      ],
      "type": "VEC3"
    },
    {
      "bufferView": 21,
      "componentType": 5126,
      "count": 138,
      "max": [
        0.9987955689430237,
        0.9987955689430237,
        1.6021983810787788e-06
      ],
      "min": [
        -0.9987955689430237,
        -0.9987955689430237,
        -2.39594101003604e-06
      ],
      "type": "VEC3"
    },
    {
      "bufferView": 22,
      "componentType": 5126,
      "count": 138,
      "max": [
        0.9987955093383789,
        0.9987955689430237,
        9.077433560378267e-08,
        -1.0
      ],
      "min": [
        -0.9987955093383789,
        -0.9987955689430237,
        -9.07740300704063e-08,
        -1.0
      ],
      "type": "VEC4"
    },
    {
      "bufferView": 23,
      "componentType": 5126,
      "count": 138,
      "max": [
        65.0,
        1.0
      ],
      "min": [
        1.0000003576278687,
        -5.960464477539063e-08
      ],
      "type": "VEC2"
    },
    {
      "bufferView": 24,
      "componentType": 5125,
      "count": 384,
      "max": [
        137
      ],
      "min": [
        0
      ],
      "type": "SCALAR"
    },
    {
      "bufferView": 25,
      "componentType": 5126,
      "count": 471,
      "max": [
        7201.7822265625,
        7201.78271484375,
        1968.502197265625
      ],
      "min": [
        -7201.77978515625,
        -7201.77978515625,
        -1139.896728515625
      ],
      "type": "VEC3"
    },
    {
      "bufferView": 26,
      "componentType": 5126,
      "count": 471,
      "max": [
        1.0,
        1.0,
        1.0
      ],
      "min": [
        -1.0,
        -1.0,
        -1.5780975549088304e-15
      ],
      "type": "VEC3"
    },
    {
      "bufferView": 27,
      "componentType": 5126,
      "count": 471,
      "max": [
        0.9994649887084961,
        0.9994649887084961,
        0.29268717765808105,
        1.0
      ],
      "min": [
        -0.9994649887084961,
        -0.9994649887084961,
        -1.0,
        -1.0
      ],
      "type": "VEC4"
    },
    {
      "bufferView": 28,
      "componentType": 5126,
      "count": 471,
      "max": [
        65.0,
        126.0
      ],
      "min": [
        -73.87538146972656,
        -2.0000033378601074
      ],
      "type": "VEC2"
    },
    {
      "bufferView": 29,
      "componentType": 5125,
      "count": 1560,
      "max": [
        470
      ],
      "min": [
        0
      ],
      "type": "SCALAR"
    },
    {
      "bufferView": 30,
      "componentType": 5126,
      "count": 9126,
      "max": [
        5817.90283203125,
        5817.90283203125,
        1615.8546142578125
      ],
      "min": [
        -5817.90283203125,
        -5817.90283203125,
        -16.687904357910156
      ],
      "type": "VEC3"
    },
    {
      "bufferView": 31,
      "componentType": 5126,
      "count": 9126,
      "max": [
        1.0,
        1.0,
        1.0
      ],
      "min": [
        -1.0,
        -1.0,
        -1.0
      ],
      "type": "VEC3"
    },
    {
      "bufferView": 32,
      "componentType": 5126,
      "count": 9126,
      "max": [
        1.0,
        1.0,
        1.0,
        1.0
      ],
      "min": [
        -1.0,
        -1.0,
        -1.0,
        -1.0
      ],
      "type": "VEC4"
    },
    {
      "bufferView": 33,
      "componentType": 5126,
      "count": 9126,
      "max": [
        253.99998474121094,
        64.31542205810547
      ],
      "min": [
        -11.183338165283203,
        -5.191826820373535
      ],
      "type": "VEC2"
    },
    {
      "bufferView": 34,
      "componentType": 5125,
      "count": 19608,
      "max": [
        9125
      ],
      "min": [
        0
      ],
      "type": "SCALAR"
    },
    {
      "bufferView": 35,
      "componentType": 5126,
      "count": 36586,
      "max": [
        7201.7822265625,
        7201.78271484375,
        4321.2841796875
      ],
      "min": [
        -7201.77978515625,
        -7201.77978515625,
        -48.2056884765625
      ],
      "type": "VEC3"
    },
    {
      "bufferView": 36,
      "componentType": 5126,
      "count": 36586,
      "max": [
        1.0,
        1.0,
        1.0
      ],
      "min": [
        -1.0,
        -1.0,
        -1.0
      ],
      "type": "VEC3"
    },
    {
      "bufferView": 37,
      "componentType": 5126,
      "count": 36586,
      "max": [
        1.0,
        1.0,
        0.8884420394897461,
        1.0
      ],
      "min": [
        -1.0,
        -1.0,
        -0.8884410262107849,
        -1.0
      ],
      "type": "VEC4"
    },
    {
      "bufferView": 38,
      "componentType": 5126,
      "count": 36586,
      "max": [
        17.125465393066406,
        17.125465393066406
      ],
      "min": [
        -16.12957191467285,
        -16.125459671020508
      ],
      "type": "VEC2"
    },
    {
      "bufferView": 39,
      "componentType": 5125,
      "count": 86142,
      "max": [
        36585
      ],
      "min": [
        0
      ],
      "type": "SCALAR"
    },
    {
      "bufferView": 40,
      "componentType": 5126,
      "count": 256,
      "max": [
        3891.371337890625,
        3891.371337890625,
        345.107177734375
      ],
      "min": [
        -3891.371337890625,
        -3891.371337890625,
        102.20350646972656
      ],
      "type": "VEC3"
    },
    {
      "bufferView": 41,
      "componentType": 5126,
      "count": 256,
      "max": [
        1.0,
        1.0,
        4.267273106961511e-05
      ],
      "min": [
        -1.0,
        -1.0,
        -7.175563223427162e-05
      ],
      "type": "VEC3"
    },
    {
      "bufferView": 42,
      "componentType": 5126,
      "count": 256,
      "max": [
        1.0,
        1.0,
        1.0,
        1.0
      ],
      "min": [
        -1.0,
        -1.0,
        -0.818513035774231,
        -1.0
      ],
      "type": "VEC4"
    },
    {
      "bufferView": 43,
      "componentType": 5126,
      "count": 256,
      "max": [
        0.9999999403953552,
        1.0
      ],
      "min": [
        2.9802322387695313e-08,
        -2.11969961583236e-08
      ],
      "type": "VEC2"
    },
    {
      "bufferView": 44,
      "componentType": 5125,
      "count": 768,
      "max": [
        255
      ],
      "min": [
        0
      ],
      "type": "SCALAR"
    },
    {
      "bufferView": 45,
      "componentType": 5126,
      "count": 18744,
      "max": [
        3922.511474609375,
        3922.511474609375,
        241.82501220703125
      ],
      "min": [
        -3922.511474609375,
        -3922.511474609375,
        -1.6115303039550781
      ],
      "type": "VEC3"
    },
    {
      "bufferView": 46,
      "componentType": 5126,
      "count": 18744,
      "max": [
        1.0,
        1.0,
        0.9376338720321655
      ],
      "min": [
        -1.0,
        -1.0,
        -0.9979783892631531
      ],
      "type": "VEC3"
    },
    {
      "bufferView": 47,
      "componentType": 5126,
      "count": 18744,
      "max": [
        1.0,
        1.0,
        0.8493669033050537,
        1.0
      ],
      "min": [
        -1.0,
        -1.0,
        -0.8493669033050537,
        -1.0
      ],
      "type": "VEC4"
    },
    {
      "bufferView": 48,
      "componentType": 5126,
      "count": 18744,
      "max": [
        2.1173784732818604,
        26.0
      ],
      "min": [
        -0.17514684796333313,
        -1.5497207641601563e-06
      ],
      "type": "VEC2"
    },
    {
      "bufferView": 49,
      "componentType": 5125,
      "count": 52536,
      "max": [
        18743
      ],
      "min": [
        0
      ],
      "type": "SCALAR"
    },
    {
      "bufferView": 50,
      "componentType": 5126,
      "count": 684,
      "max": [
        6983.509765625,
        6877.41455078125,
        4270.751953125
      ],
      "min": [
        -6983.509765625,
        -6877.4150390625,
        4089.828369140625
      ],
      "type": "VEC3"
    },
    {
      "bufferView": 51,
      "componentType": 5126,
      "count": 684,
      "max": [
        1.0,
        0.9848082065582275,
        0.0
      ],
      "min": [
        -1.0,
        -0.984808623790741,
        0.0
      ],
      "type": "VEC3"
    },
    {
      "bufferView": 52,
      "componentType": 5126,
      "count": 684,
      "max": [
        0.9848085641860962,
        1.0,
        0.0,
        1.0
      ],
      "min": [
        -0.9848081469535828,
        -1.0,
        0.0,
        1.0
      ],
      "type": "VEC4"
    },
    {
      "bufferView": 53,
      "componentType": 5126,
      "count": 684,
      "max": [
        11.666666030883789,
        1.0
      ],
      "min": [
        -0.33333420753479004,
        0.0
      ],
      "type": "VEC2"
    },
    {
      "bufferView": 54,
      "componentType": 5125,
      "count": 1944,
      "max": [
        683
      ],
      "min": [
        0
      ],
      "type": "SCALAR"
    },
    {
      "bufferView": 55,
      "componentType": 5126,
      "count": 648,
      "max": [
        6915.251953125,
        6810.67236328125,
        3998.583984375
      ],
      "min": [
        -6915.251953125,
        -6810.6728515625,
        2106.0908203125
      ],
      "type": "VEC3"
    },
    {
      "bufferView": 56,
      "componentType": 5126,
      "count": 648,
      "max": [
        0.9848090410232544,
        1.0,
        3.5136815768055385e-07
      ],
      "min": [
        -0.9848098158836365,
        -1.0,
        0.0
      ],
      "type": "VEC3"
    },
    {
      "bufferView": 57,
      "componentType": 5126,
      "count": 648,
      "max": [
        1.0,
        0.9848089814186096,
        1.7691473885861342e-06,
        1.0
      ],
      "min": [
        -1.0,
        -0.9848098754882813,
        -3.617172886086553e-14,
        1.0
      ],
      "type": "VEC4"
    },
    {
      "bufferView": 58,
      "componentType": 5126,
      "count": 648,
      "max": [
        1.8389973640441895,
        5.0
      ],
      "min": [
        -0.060608744621276855,
        2.980232238769531e-07
      ],
      "type": "VEC2"
    },
    {
      "bufferView": 59,
      "componentType": 5125,
      "count": 972,
      "max": [
        647
      ],
      "min": [
        0
      ],
      "type": "SCALAR"
    },
    {
      "bufferView": 60,
      "componentType": 5126,
      "count": 352,
      "max": [
        4567.02734375,
        4567.02734375,
        206.83738708496094
      ],
      "min": [
        -4567.02734375,
        -4567.02734375,
        -1.3386790342906352e-08
      ],
      "type": "VEC3"
    },
    {
      "bufferView": 61,
      "componentType": 5126,
      "count": 352,
      "max": [
        1.0,
        1.0,
        1.0102951819135342e-05
      ],
      "min": [
        -1.0,
        -1.0,
        -1.1497932973725256e-05
      ],
      "type": "VEC3"
    },
    {
      "bufferView": 62,
      "componentType": 5126,
      "count": 352,
      "max": [
        1.0,
        1.0,
        3.4734691780613502e-06,
        1.0
      ],
      "min": [
        -1.0,
        -1.0,
        -6.343667337205261e-06,
        1.0
      ],
      "type": "VEC4"
    },
    {
      "bufferView": 63,
      "componentType": 5126,
      "count": 352,
      "max": [
        1.0,
        1.0
      ],
      "min": [
        2.9802322387695313e-08,
        -5.960464477539063e-08
      ],
      "type": "VEC2"
    },
    {
      "bufferView": 64,
      "componentType": 5125,
      "count": 960,
      "max": [
        351
      ],
      "min": [
        0
      ],
      "type": "SCALAR"
    },
    {
      "bufferView": 65,
      "componentType": 5126,
      "count": 4,
      "max": [
        118.63610076904297,
        4604.34375,
        246.58885192871094
      ],
      "min": [
        -118.63610076904297,
        4604.34375,
        9.316658973693848
      ],
      "type": "VEC3"
    },
    {
      "bufferView": 66,
      "componentType": 5126,
      "count": 4,
      "max": [
        0.0,
        -1.0,
        0.0
      ],
      "min": [
        0.0,
        -1.0,
        0.0
      ],
      "type": "VEC3"
    },
    {
      "bufferView": 67,
      "componentType": 5126,
      "count": 4,
      "max": [
        1.0,
        0.0,
        0.0,
        1.0
      ],
      "min": [
        1.0,
        0.0,
        0.0,
        1.0
      ],
      "type": "VEC4"
    },
    {
      "bufferView": 68,
      "componentType": 5126,
      "count": 4,
      "max": [
        1.0,
        1.0
      ],
      "min": [
        0.0,
        0.0
      ],
      "type": "VEC2"
    },
    {
      "bufferView": 69,
      "componentType": 5125,
      "count": 6,
      "max": [
        3
      ],
      "min": [
        0
      ],
      "type": "SCALAR"
    },
    {
      "bufferView": 70,
      "componentType": 5126,
      "count": 292,
      "max": [
        139.66392517089844,
        4630.09619140625,
        8.41101360321045
      ],
      "min": [
        135.1707305908203,
        4619.20166015625,
        2.4113574028015137
      ],
      "type": "VEC3"
    },
    {
      "bufferView": 71,
      "componentType": 5126,
      "count": 292,
      "max": [
        0.9306283593177795,
        0.9265574216842651,
        0.9980542659759521
      ],
      "min": [
        -0.36246469616889954,
        -0.9181205630302429,
        -0.9992009997367859
      ],
      "type": "VEC3"
    },
    {
      "bufferView": 72,
      "componentType": 5126,
      "count": 292,
      "max": [
        -1.7976931348623157e+308,
        -1.7976931348623157e+308,
        -1.7976931348623157e+308,
        1.0
      ],
      "min": [
        1.7976931348623157e+308,
        1.7976931348623157e+308,
        1.7976931348623157e+308,
        1.0
      ],
      "type": "VEC4"
    },
    {
      "bufferView": 73,
      "componentType": 5126,
      "count": 292,
      "max": [
        1.0,
        1.0
      ],
      "min": [
        1.0,
        1.0
      ],
      "type": "VEC2"
    },
    {
      "bufferView": 74,
      "componentType": 5125,
      "count": 318,
      "max": [
        291
      ],
      "min": [
        0
      ],
      "type": "SCALAR"
    }
  ],
  "asset": {
    "version": "2.0"
  },
  "bufferViews": [
    {
      "buffer": 0,
      "byteLength": 48,
      "target": 34962
    },
    {
      "buffer": 0,
      "byteLength": 48,
      "byteOffset": 48,
      "target": 34962
    },
    {
      "buffer": 0,
      "byteLength": 64,
      "byteOffset": 96,
      "target": 34962
    },
    {
      "buffer": 0,
      "byteLength": 32,
      "byteOffset": 160,
      "target": 34962
    },
    {
      "buffer": 0,
      "byteLength": 24,
      "byteOffset": 192,
      "target": 34963
    },
    {
      "buffer": 0,
      "byteLength": 1056,
      "byteOffset": 216,
      "target": 34962
    },
    {
      "buffer": 0,
      "byteLength": 1056,
      "byteOffset": 1272,
      "target": 34962
    },
    {
      "buffer": 0,
      "byteLength": 1408,
      "byteOffset": 2328,
      "target": 34962
    },
    {
      "buffer": 0,
      "byteLength": 704,
      "byteOffset": 3736,
      "target": 34962
    },
    {
      "buffer": 0,
      "byteLength": 912,
      "byteOffset": 4440,
      "target": 34963
    },
    {
      "buffer": 0,
      "byteLength": 8448,
      "byteOffset": 5352,
      "target": 34962
    },
    {
      "buffer": 0,
      "byteLength": 8448,
      "byteOffset": 13800,
      "target": 34962
    },
    {
      "buffer": 0,
      "byteLength": 11264,
      "byteOffset": 22248,
      "target": 34962
    },
    {
      "buffer": 0,
      "byteLength": 5632,
      "byteOffset": 33512,
      "target": 34962
    },
    {
      "buffer": 0,
      "byteLength": 4992,
      "byteOffset": 39144,
      "target": 34963
    },
    {
      "buffer": 0,
      "byteLength": 4224,
      "byteOffset": 44136,
      "target": 34962
    },
    {
      "buffer": 0,
      "byteLength": 4224,
      "byteOffset": 48360,
      "target": 34962
    },
    {
      "buffer": 0,
      "byteLength": 5632,
      "byteOffset": 52584,
      "target": 34962
    },
    {
      "buffer": 0,
      "byteLength": 2816,
      "byteOffset": 58216,
      "target": 34962
    },
    {
      "buffer": 0,
      "byteLength": 2496,
      "byteOffset": 61032,
      "target": 34963
    },
    {
      "buffer": 0,
      "byteLength": 1656,
      "byteOffset": 63528,
      "target": 34962
    },
    {
      "buffer": 0,
      "byteLength": 1656,
      "byteOffset": 65184,
      "target": 34962
    },
    {
      "buffer": 0,
      "byteLength": 2208,
      "byteOffset": 66840,
      "target": 34962
    },
    {
      "buffer": 0,
      "byteLength": 1104,
      "byteOffset": 69048,
      "target": 34962
    },
    {
      "buffer": 0,
      "byteLength": 1536,
      "byteOffset": 70152,
      "target": 34963
    },
    {
      "buffer": 0,
      "byteLength": 5652,
      "byteOffset": 71688,
      "target": 34962
    },
    {
      "buffer": 0,
      "byteLength": 5652,
      "byteOffset": 77340,
      "target": 34962
    },
    {
      "buffer": 0,
      "byteLength": 7536,
      "byteOffset": 82992,
      "target": 34962
    },
    {
      "buffer": 0,
      "byteLength": 3768,
      "byteOffset": 90528,
      "target": 34962
    },
    {
      "buffer": 0,
      "byteLength": 6240,
      "byteOffset": 94296,
      "target": 34963
    },
    {
      "buffer": 0,
      "byteLength": 109512,
      "byteOffset": 100536,
      "target": 34962
    },
    {
      "buffer": 0,
      "byteLength": 109512,
      "byteOffset": 210048,
      "target": 34962
    },
    {
      "buffer": 0,
      "byteLength": 146016,
      "byteOffset": 319560,
      "target": 34962
    },
    {
      "buffer": 0,
      "byteLength": 73008,
      "byteOffset": 465576,
      "target": 34962
    },
    {
      "buffer": 0,
      "byteLength": 78432,
      "byteOffset": 538584,
      "target": 34963
    },
    {
      "buffer": 0,
      "byteLength": 439032,
      "byteOffset": 617016,
      "target": 34962
    },
    {
      "buffer": 0,
      "byteLength": 439032,
      "byteOffset": 1056048,
      "target": 34962
    },
    {
      "buffer": 0,
      "byteLength": 585376,
      "byteOffset": 1495080,
      "target": 34962
    },
    {
      "buffer": 0,
      "byteLength": 292688,
      "byteOffset": 2080456,
      "target": 34962
    },
    {
      "buffer": 0,
      "byteLength": 344568,
      "byteOffset": 2373144,
      "target": 34963
    },
    {
      "buffer": 0,
      "byteLength": 3072,
      "byteOffset": 2717712,
      "target": 34962
    },
    {
      "buffer": 0,
      "byteLength": 3072,
      "byteOffset": 2720784,
      "target": 34962
    },
    {
      "buffer": 0,
      "byteLength": 4096,
      "byteOffset": 2723856,
      "target": 34962
    },
    {
      "buffer": 0,
      "byteLength": 2048,
      "byteOffset": 2727952,
      "target": 34962
    },
    {
      "buffer": 0,
      "byteLength": 3072,
      "byteOffset": 2730000,
      "target": 34963
    },
    {
      "buffer": 0,
      "byteLength": 224928,
      "byteOffset": 2733072,
      "target": 34962
    },
    {
      "buffer": 0,
      "byteLength": 224928,
      "byteOffset": 2958000,
      "target": 34962
    },
    {
      "buffer": 0,
      "byteLength": 299904,
      "byteOffset": 3182928,
      "target": 34962
    },
    {
      "buffer": 0,
      "byteLength": 149952,
      "byteOffset": 3482832,
      "target": 34962
    },
    {
      "buffer": 0,
      "byteLength": 210144,
      "byteOffset": 3632784,
      "target": 34963
    },
    {
      "buffer": 0,
      "byteLength": 8208,
      "byteOffset": 3842928,
      "target": 34962
    },
    {
      "buffer": 0,
      "byteLength": 8208,
      "byteOffset": 3851136,
      "target": 34962
    },
    {
      "buffer": 0,
      "byteLength": 10944,
      "byteOffset": 3859344,
      "target": 34962
    },
    {
      "buffer": 0,
      "byteLength": 5472,
      "byteOffset": 3870288,
      "target": 34962
    },
    {
      "buffer": 0,
      "byteLength": 7776,
      "byteOffset": 3875760,
      "target": 34963
    },
    {
      "buffer": 0,
      "byteLength": 7776,
      "byteOffset": 3883536,
      "target": 34962
    },
    {
      "buffer": 0,
      "byteLength": 7776,
      "byteOffset": 3891312,
      "target": 34962
    },
    {
      "buffer": 0,
      "byteLength": 10368,
      "byteOffset": 3899088,
      "target": 34962
    },
    {
      "buffer": 0,
      "byteLength": 5184,
      "byteOffset": 3909456,
      "target": 34962
    },
    {
      "buffer": 0,
      "byteLength": 3888,
      "byteOffset": 3914640,
      "target": 34963
    },
    {
      "buffer": 0,
      "byteLength": 4224,
      "byteOffset": 3918528,
      "target": 34962
    },
    {
      "buffer": 0,
      "byteLength": 4224,
      "byteOffset": 3922752,
      "target": 34962
    },
    {
      "buffer": 0,
      "byteLength": 5632,
      "byteOffset": 3926976,
      "target": 34962
    },
    {
      "buffer": 0,
      "byteLength": 2816,
      "byteOffset": 3932608,
      "target": 34962
    },
    {
      "buffer": 0,
      "byteLength": 3840,
      "byteOffset": 3935424,
      "target": 34963
    },
    {
      "buffer": 0,
      "byteLength": 48,
      "byteOffset": 3939264,
      "target": 34962
    },
    {
      "buffer": 0,
      "byteLength": 48,
      "byteOffset": 3939312,
      "target": 34962
    },
    {
      "buffer": 0,
      "byteLength": 64,
      "byteOffset": 3939360,
      "target": 34962
    },
    {
      "buffer": 0,
      "byteLength": 32,
      "byteOffset": 3939424,
      "target": 34962
    },
    {
      "buffer": 0,
      "byteLength": 24,
      "byteOffset": 3939456,
      "target": 34963
    },
    {
      "buffer": 0,
      "byteLength": 3504,
      "byteOffset": 3939480,
      "target": 34962
    },
    {
      "buffer": 0,
      "byteLength": 3504,
      "byteOffset": 3942984,
      "target": 34962
    },
    {
      "buffer": 0,
      "byteLength": 4672,
      "byteOffset": 3946488,
      "target": 34962
    },
    {
      "buffer": 0,
      "byteLength": 2336,
      "byteOffset": 3951160,
      "target": 34962
    },
    {
      "buffer": 0,
      "byteLength": 1272,
      "byteOffset": 3953496,
      "target": 34963
    }
  ],
  "buffers": [
    {
      "byteLength": 3954768,
      "uri": "circle_of_death.bin"
    }
  ],
  "images": [
    {
      "uri": "logo_Base.png"
    },
    {
      "uri": "logo_Normal.png"
    },
    {
      "uri": "floor_main_Base.png"
    },
    {
      "uri": "floor_main_Normal.png"
    },
    {
      "uri": "sink_wall_Base.png"
    },
    {
      "uri": "sink_wall_Normal.png"
    },
    {
      "uri": "sink_floor_Base.png"
    },
    {
      "uri": "sink_floor_Normal.png"
    },
    {
      "uri": "main_walls_Base.png"
    },
    {
      "uri": "main_walls_Normal.png"
    },
    {
      "uri": "walls_Base.png"
    },
    {
      "uri": "walls_Normal.png"
    },
    {
      "uri": "door_frame2_Base.png"
    },
    {
      "uri": "door_frame2_Normal.png"
    },
    {
      "uri": "collumn_bricks_Base.png"
    },
    {
      "uri": "collumn_bricks_Normal.png"
    },
    {
      "uri": "door_frame_Base.png"
    },
    {
      "uri": "door_frame_Normal.png"
    },
    {
      "uri": "metal_Base.png"
    },
    {
      "uri": "collumn_ornament_Base.png"
    },
    {
      "uri": "collumn_ornament_Normal.png"
    },
    {
      "uri": "collumn_simbols_Base.png"
    },
    {
      "uri": "collumn_simbols_Normal.png"
    },
    {
      "uri": "door_frame3_Base.png"
    },
    {
      "uri": "door_frame3_Normal.png"
    },
    {
      "uri": "map_logo_Base.png"
    },
    {
      "uri": "map_logo_Normal.png"
    }
  ],
  "materials": [
    {
      "name": "logo",
      "normalTexture": {
        "index": 1
      },
      "pbrMetallicRoughness": {
        "baseColorTexture": {
          "index": 0
        },
        "metallicFactor": 0.0,
        "roughnessFactor": 0.6000000238418579
      }
    },
    {
      "name": "floor_main",
      "normalTexture": {
        "index": 3
      },
      "pbrMetallicRoughness": {
        "baseColorTexture": {
          "index": 2
        },
        "metallicFactor": 0.0,
        "roughnessFactor": 0.4000000059604645
      }
    },
    {
      "name": "sink_wall",
      "normalTexture": {
        "index": 5
      },
      "pbrMetallicRoughness": {
        "baseColorTexture": {
          "index": 4
        },
        "metallicFactor": 0.0,
        "roughnessFactor": 0.4000000059604645
      }
    },
    {
      "name": "sink_floor",
      "normalTexture": {
        "index": 7
      },
      "pbrMetallicRoughness": {
        "baseColorTexture": {
          "index": 6
        },
        "metallicFactor": 0.0,
        "roughnessFactor": 0.4000000059604645
      }
    },
    {
      "name": "main_walls",
      "normalTexture": {
        "index": 9
      },
      "pbrMetallicRoughness": {
        "baseColorTexture": {
          "index": 8
        },
        "metallicFactor": 0.0,
        "roughnessFactor": 0.6000000238418579
      }
    },
    {
      "name": "walls",
      "normalTexture": {
        "index": 11
      },
      "pbrMetallicRoughness": {
        "baseColorTexture": {
          "index": 10
        },
        "metallicFactor": 0.0,
        "roughnessFactor": 0.6000000238418579
      }
    },
    {
      "name": "door_frame2",
      "normalTexture": {
        "index": 13
      },
      "pbrMetallicRoughness": {
        "baseColorTexture": {
          "index": 12
        },
        "metallicFactor": 0.0,
        "roughnessFactor": 0.6000000238418579
      }
    },
    {
      "name": "collumn_bricks",
      "normalTexture": {
        "index": 15
      },
      "pbrMetallicRoughness": {
        "baseColorTexture": {
          "index": 14
        },
        "metallicFactor": 0.0,
        "roughnessFactor": 0.6000000238418579
      }
    },
    {
      "name": "door_frame",
      "normalTexture": {
        "index": 17
      },
      "pbrMetallicRoughness": {
        "baseColorTexture": {
          "index": 16
        },
        "metallicFactor": 0.0,
        "roughnessFactor": 0.6000000238418579
      }
    },
    {
      "name": "metal",
      "pbrMetallicRoughness": {
        "baseColorTexture": {
          "index": 18
        },
        "roughnessFactor": 0.16025152802467346
      }
    },
    {
      "name": "collumn_ornament",
      "normalTexture": {
        "index": 20
      },
      "pbrMetallicRoughness": {
        "baseColorTexture": {
          "index": 19
        },
        "metallicFactor": 0.0,
        "roughnessFactor": 0.6000000238418579
      }
    },
    {
      "name": "collumn_simbols",
      "normalTexture": {
        "index": 22
      },
      "pbrMetallicRoughness": {
        "baseColorTexture": {
          "index": 21
        },
        "metallicFactor": 0.0,
        "roughnessFactor": 0.6000000238418579
      }
    },
    {
      "name": "door_frame3",
      "normalTexture": {
        "index": 24
      },
      "pbrMetallicRoughness": {
        "baseColorTexture": {
          "index": 23
        },
        "metallicFactor": 0.0,
        "roughnessFactor": 0.6000000238418579
      }
    },
    {
      "name": "map_logo",
      "normalTexture": {
        "index": 26
      },
      "pbrMetallicRoughness": {
        "baseColorTexture": {
          "index": 25
        },
        "metallicFactor": 0.0,
        "roughnessFactor": 0.6000000238418579
      }
    },
    {
      "emissiveFactor": [
        1.0,
        1.0,
        1.0
      ],
      "name": "light",
      "pbrMetallicRoughness": {
        "metallicFactor": 0.0,
        "roughnessFactor": 0.6000000238418579
      }
    }
  ],
  "meshes": [
    {
      "primitives": [
        {
          "attributes": {
            "NORMAL": 1,
            "POSITION": 0,
            "TANGENT": 2,
            "TEXCOORD_0": 3
          },
          "indices": 4,
          "material": 0,
          "mode": 4
        }
      ]
    },
    {
      "primitives": [
        {
          "attributes": {
            "NORMAL": 6,
            "POSITION": 5,
            "TANGENT": 7,
            "TEXCOORD_0": 8
          },
          "indices": 9,
          "material": 1,
          "mode": 4
        }
      ]
    },
    {
      "primitives": [
        {
          "attributes": {
            "NORMAL": 11,
            "POSITION": 10,
            "TANGENT": 12,
            "TEXCOORD_0": 13
          },
          "indices": 14,
          "material": 2,
          "mode": 4
        }
      ]
    },
    {
      "primitives": [
        {
          "attributes": {
            "NORMAL": 16,
            "POSITION": 15,
            "TANGENT": 17,
            "TEXCOORD_0": 18
          },
          "indices": 19,
          "material": 3,
          "mode": 4
        }
      ]
    },
    {
      "primitives": [
        {
          "attributes": {
            "NORMAL": 21,
            "POSITION": 20,
            "TANGENT": 22,
            "TEXCOORD_0": 23
          },
          "indices": 24,
          "material": 4,
          "mode": 4
        }
      ]
    },
    {
      "primitives": [
        {
          "attributes": {
            "NORMAL": 26,
            "POSITION": 25,
            "TANGENT": 27,
            "TEXCOORD_0": 28
          },
          "indices": 29,
          "material": 5,
          "mode": 4
        }
      ]
    },
    {
      "primitives": [
        {
          "attributes": {
            "NORMAL": 31,
            "POSITION": 30,
            "TANGENT": 32,
            "TEXCOORD_0": 33
          },
          "indices": 34,
          "material": 6,
          "mode": 4
        }
      ]
    },
    {
      "primitives": [
        {
          "attributes": {
            "NORMAL": 36,
            "POSITION": 35,
            "TANGENT": 37,
            "TEXCOORD_0": 38
          },
          "indices": 39,
          "material": 7,
          "mode": 4
        }
      ]
    },
    {
      "primitives": [
        {
          "attributes": {
            "NORMAL": 41,
            "POSITION": 40,
            "TANGENT": 42,
            "TEXCOORD_0": 43
          },
          "indices": 44,
          "material": 8,
          "mode": 4
        }
      ]
    },
    {
      "primitives": [
        {
          "attributes": {
            "NORMAL": 46,
            "POSITION": 45,
            "TANGENT": 47,
            "TEXCOORD_0": 48
          },
          "indices": 49,
          "material": 9,
          "mode": 4
        }
      ]
    },
    {
      "primitives": [
        {
          "attributes": {
            "NORMAL": 51,
            "POSITION": 50,
            "TANGENT": 52,
            "TEXCOORD_0": 53
          },
          "indices": 54,
          "material": 10,
          "mode": 4
        }
      ]
    },
    {
      "primitives": [
        {
          "attributes": {
            "NORMAL": 56,
            "POSITION": 55,
            "TANGENT": 57,
            "TEXCOORD_0": 58
          },
          "indices": 59,
          "material": 11,
          "mode": 4
        }
      ]
    },
    {
      "primitives": [
        {
          "attributes": {
            "NORMAL": 61,
            "POSITION": 60,
            "TANGENT": 62,
            "TEXCOORD_0": 63
          },
          "indices": 64,
          "material": 12,
          "mode": 4
        }
      ]
    },
    {
      "primitives": [
        {
          "attributes": {
            "NORMAL": 66,
            "POSITION": 65,
            "TANGENT": 67,
            "TEXCOORD_0": 68
          },
          "indices": 69,
          "material": 13,
          "mode": 4
        }
      ]
    },
    {
      "primitives": [
        {
          "attributes": {
            "NORMAL": 71,
            "POSITION": 70,
            "TANGENT": 72,
            "TEXCOORD_0": 73
          },
          "indices": 74,
          "material": 14,
          "mode": 4
        }
      ]
    }
  ],
  "nodes": [
    {
      "children": [
        1
      ],
      "name": "Sketchfab_model",
      "rotation": [
        -0.7071067690849304,
        0.0,
        -0.0,
        0.7071067690849304
      ],
      "scale": [
        1.0,
        1.0,
        1.0
      ],
      "translation": [
        0.0,
        0.0,
        0.0
      ]
    },
    {
      "children": [
        2
      ],
      "name": "969bd53ffa0041679f3fb703451b13ec.fbx",
      "rotation": [
        0.7071067690849304,
        0.0,
        0.0,
        0.7071067690849304
      ],
      "scale": [
        1.0,
        1.0,
        1.0
      ],
      "translation": [
        0.0,
        0.0,
        0.0
      ]
    },
    {
      "children": [
        3
      ],
      "name": "RootNode",
      "rotation": [
        0.0,
        0.0,
        0.0,
        1.0
      ],
      "scale": [
        1.0,
        1.0,
        1.0
      ],
      "translation": [
        0.0,
        0.0,
        0.0
      ]
    },
    {
      "children": [
        4,
        5,
        6,
        7,
        8,
        9,
        10,
        11,
        12,
        13,
        14,
        15,
        16,
        17,
        18
      ],
      "name": "Object008",
      "rotation": [
        -0.7071067690849304,
        0.0,
        -0.0,
        0.7071067690849304
      ],
      "scale": [
        1.0,
        1.0,
        1.0
      ],
      "translation": [
        0.0,
        0.0,
        0.0
      ]
    },
    {
      "mesh": 0,
      "name": "Object008_logo_0",
      "rotation": [
        0.0,
        0.0,
        0.0,
        1.0
      ],
      "scale": [
        1.0,
        1.0,
        1.0
      ],
      "translation": [
        0.0,
        0.0,
        0.0
      ]
    },
    {
      "mesh": 1,
      "name": "Object008_floor main_0",
      "rotation": [
        0.0,
        0.0,
        0.0,
        1.0
      ],
      "scale": [
        1.0,
        1.0,
        1.0
      ],
      "translation": [
        0.0,
        0.0,
        0.0
      ]
    },
    {
      "mesh": 2,
      "name": "Object008_sink wall_0",
      "rotation": [
        0.0,
        0.0,
        0.0,
        1.0
      ],
      "scale": [
        1.0,
        1.0,
        1.0
      ],
      "translation": [
        0.0,
        0.0,
        0.0
      ]
    },
    {
      "mesh": 3,
      "name": "Object008_sink floor_0",
      "rotation": [
        0.0,
        0.0,
        0.0,
        1.0
      ],
      "scale": [
        1.0,
        1.0,
        1.0
      ],
      "translation": [
        0.0,
        0.0,
        0.0
      ]
    },
    {
      "mesh": 4,
      "name": "Object008_main walls_0",
      "rotation": [
        0.0,
        0.0,
        0.0,
        1.0
      ],
      "scale": [
        1.0,
        1.0,
        1.0
      ],
      "translation": [
        0.0,
        0.0,
        0.0
      ]
    },
    {
      "mesh": 5,
      "name": "Object008_walls_0",
      "rotation": [
        0.0,
        0.0,
        0.0,
        1.0
      ],
      "scale": [
        1.0,
        1.0,
        1.0
      ],
      "translation": [
        0.0,
        0.0,
        0.0
      ]
    },
    {
      "mesh": 6,
      "name": "Object008_door frame2_0",
      "rotation": [
        0.0,
        0.0,
        0.0,
        1.0
      ],
      "scale": [
        1.0,
        1.0,
        1.0
      ],
      "translation": [
        0.0,
        0.0,
        0.0
      ]
    },
    {
      "mesh": 7,
      "name": "Object008_collumn bricks_0",
      "rotation": [
        0.0,
        0.0,
        0.0,
        1.0
      ],
      "scale": [
        1.0,
        1.0,
        1.0
      ],
      "translation": [
        0.0,
        0.0,
        0.0
      ]
    },
    {
      "mesh": 8,
      "name": "Object008_door frame_0",
      "rotation": [
        0.0,
        0.0,
        0.0,
        1.0
      ],
      "scale": [
        1.0,
        1.0,
        1.0
      ],
      "translation": [
        0.0,
        0.0,
        0.0
      ]
    },
    {
      "mesh": 9,
      "name": "Object008_metal_0",
      "rotation": [
        0.0,
        0.0,
        0.0,
        1.0
      ],
      "scale": [
        1.0,
        1.0,
        1.0
      ],
      "translation": [
        0.0,
        0.0,
        0.0
      ]
    },
    {
      "mesh": 10,
      "name": "Object008_collumn ornament_0",
      "rotation": [
        0.0,
        0.0,
        0.0,
        1.0
      ],
      "scale": [
        1.0,
        1.0,
        1.0
      ],
      "translation": [
        0.0,
        0.0,
        0.0
      ]
    },
    {
      "mesh": 11,
      "name": "Object008_collumn simbols_0",
      "rotation": [
        0.0,
        0.0,
        0.0,
        1.0
      ],
      "scale": [
        1.0,
        1.0,
        1.0
      ],
      "translation": [
        0.0,
        0.0,
        0.0
      ]
    },
    {
      "mesh": 12,
      "name": "Object008_door frame3_0",
      "rotation": [
        0.0,
        0.0,
        0.0,
        1.0
      ],
      "scale": [
        1.0,
        1.0,
        1.0
      ],
      "translation": [
        0.0,
        0.0,
        0.0
      ]
    },
    {
      "mesh": 13,
      "name": "Object008_map logo_0",
      "rotation": [
        0.0,
        0.0,
        0.0,
        1.0
      ],
      "scale": [
        1.0,
        1.0,
        1.0
      ],
      "translation": [
        0.0,
        0.0,
        0.0
      ]
    },
    {
      "mesh": 14,
      "name": "Object008_light_0",
      "rotation": [
        0.0,
        0.0,
        0.0,
        1.0
      ],
      "scale": [
        1.0,
        1.0,
        1.0
      ],
      "translation": [
        0.0,
        0.0,
        0.0
      ]
    }
  ],
  "samplers": [
    {
      "wrapS": 10497,
      "wrapT": 10497
    }
  ],
  "scenes": [
    {
      "nodes": [
        0
      ]
    }
  ],
  "textures": [
    {
      "sampler": 0,
      "source": 0
    },
    {
      "sampler": 0,
      "source": 1
    },
    {
      "sampler": 0,
      "source": 2
    },
    {
      "sampler": 0,
      "source": 3
    },
    {
      "sampler": 0,
      "source": 4
    },
    {
      "sampler": 0,
      "source": 5
    },
    {
      "sampler": 0,
      "source": 6
    },
    {
      "sampler": 0,
      "source": 7
    },
    {
      "sampler": 0,
      "source": 8
    },
    {
      "sampler": 0,
      "source": 9
    },
    {
      "sampler": 0,
      "source": 10
    },
    {
      "sampler": 0,
      "source": 11
    },
    {
      "sampler": 0,
      "source": 12
    },
    {
      "sampler": 0,
      "source": 13
    },
    {
      "sampler": 0,
      "source": 14
    },
    {
      "sampler": 0,
      "source": 15
    },
    {
      "sampler": 0,
      "source": 16
    },
    {
      "sampler": 0,
      "source": 17
    },
    {
      "sampler": 0,
      "source": 18
    },
    {
      "sampler": 0,
      "source": 19
    },
    {
      "sampler": 0,
      "source": 20
    },
    {
      "sampler": 0,
      "source": 21
    },
    {
      "sampler": 0,
      "source": 22
    },
    {
      "sampler": 0,
      "source": 23
    },
    {
      "sampler": 0,
      "source": 24
    },
    {
      "sampler": 0,
      "source": 25
    },
    {
      "sampler": 0,
      "source": 26
    }
  ]
}
